<svg width="152" height="40" viewBox="0 0 152 40" fill="none" xmlns="http://www.w3.org/2000/svg">
<g clip-path="url(#clip0_144_69995)">
<path d="M10.8794 31.7727H14.8963C17.1121 31.7727 18.6902 31.7329 19.6307 31.6532C20.5871 31.5735 21.4001 31.3663 22.0696 31.0316C22.6912 30.7128 23.2571 30.2905 23.7672 29.7645C24.2932 29.2544 24.7157 28.6886 25.0345 28.067C25.3692 27.3976 25.5765 26.5927 25.6562 25.6523C25.7359 24.696 25.7757 23.1101 25.7757 20.8946V16.902C25.7757 14.6706 25.7359 13.0847 25.6562 12.1443C25.5765 11.204 25.3692 10.3991 25.0345 9.72964C24.7157 9.09209 24.2932 8.5183 23.7672 8.00827C23.2571 7.49823 22.6912 7.08383 22.0696 6.76505C21.4001 6.4144 20.5871 6.19923 19.6307 6.11954C18.6902 6.03985 17.1121 6 14.8963 6H10.8794C8.66363 6 7.08553 6.03985 6.14504 6.11954C5.18862 6.19923 4.37565 6.4144 3.70615 6.76505C3.08448 7.08383 2.51859 7.49823 2.0085 8.00827C1.48246 8.5183 1.06004 9.09209 0.741231 9.72964C0.406482 10.3991 0.199255 11.204 0.119553 12.1443C0.039851 13.0847 0 14.6706 0 16.902V20.8946C0 23.1101 0.039851 24.696 0.119553 25.6523C0.199255 26.5927 0.406482 27.3976 0.741231 28.067C1.06004 28.6886 1.48246 29.2544 2.0085 29.7645C2.51859 30.2905 3.08448 30.7128 3.70615 31.0316C4.37565 31.3663 5.18862 31.5735 6.14504 31.6532C7.08553 31.7329 8.66363 31.7727 10.8794 31.7727Z" fill="#3650FF"/>
<path d="M10.9032 6H10.8793C10.6986 6 10.5222 6.00026 10.35 6.00079C10.5376 6.00026 10.7225 6 10.9032 6Z" fill="white"/>
<path d="M0.00927734 22.6066L7.67524 14.9416C7.93029 14.6865 8.25707 14.559 8.65558 14.559C9.00627 14.559 9.30913 14.6706 9.56418 14.8937C9.81923 15.1169 9.94675 15.4277 9.94675 15.8262V23.6201L18.6263 14.9416C18.8973 14.6706 19.2241 14.5351 19.6067 14.5351C19.9574 14.5351 20.2602 14.6547 20.5153 14.8937C20.7863 15.1328 20.9218 15.4436 20.9218 15.8262V27.7084H18.1959V18.9103L9.42072 27.5889C9.16567 27.8279 8.84686 27.9475 8.46429 27.9475C8.12954 27.9475 7.83464 27.8439 7.5796 27.6367C7.34049 27.4135 7.22094 27.1266 7.22094 26.776V18.9103L0.168935 26.1038C0.14902 25.9569 0.132532 25.8064 0.119468 25.6523C0.0620699 24.9636 0.0253396 23.9484 0.00927734 22.6066Z" fill="white"/>
<path d="M34.6744 20.1354C34.6744 19.6104 34.4994 19.1729 34.1493 18.8229C33.7993 18.4729 33.3538 18.2979 32.8128 18.2979H30.9751V15.8638H32.6219C33.2106 15.8638 33.6959 15.6729 34.0777 15.2911C34.4755 14.9093 34.6744 14.4241 34.6744 13.8354C34.6744 13.0241 34.8653 12.3002 35.2472 11.6638C35.629 11.0116 36.1541 10.5104 36.8224 10.1604C37.5065 9.79453 38.2703 9.61157 39.1135 9.61157H41.166V12.0218H39.209C38.6521 12.0218 38.1907 12.2127 37.8248 12.5945C37.4588 12.9763 37.2758 13.4377 37.2758 13.9786C37.2758 14.5036 37.4588 14.9491 37.8248 15.315C38.1907 15.6809 38.6521 15.8638 39.209 15.8638H41.166V18.2979H39.1374C38.6123 18.2979 38.1668 18.4729 37.8009 18.8229C37.4508 19.1729 37.2758 19.6104 37.2758 20.1354V27.7957H34.6744V20.1354ZM43.3856 27.7957V9.61157H46.0348V27.7957H43.3856ZM54.4358 28.0582C53.2902 28.0582 52.2321 27.7798 51.2615 27.2229C50.3069 26.6661 49.5432 25.9104 48.9704 24.9559C48.4135 24.0014 48.135 22.9514 48.135 21.8059C48.135 20.6763 48.4135 19.6343 48.9704 18.6798C49.5432 17.7252 50.3069 16.9775 51.2615 16.4366C52.2321 15.8798 53.2902 15.6013 54.4358 15.6013H54.4835C55.6291 15.6013 56.6792 15.8798 57.6339 16.4366C58.6044 16.9775 59.3682 17.7252 59.925 18.6798C60.4819 19.6343 60.7604 20.6763 60.7604 21.8059C60.7604 22.9514 60.4819 24.0014 59.925 24.9559C59.3682 25.9104 58.6044 26.6661 57.6339 27.2229C56.6792 27.7798 55.6291 28.0582 54.4835 28.0582H54.4358ZM54.4835 25.4332C55.1358 25.4332 55.7325 25.2741 56.2735 24.9559C56.8304 24.6218 57.2679 24.1764 57.5861 23.6195C57.9043 23.0627 58.0635 22.4582 58.0635 21.8059C58.0635 21.1536 57.9043 20.557 57.5861 20.0161C57.2679 19.4593 56.8304 19.0218 56.2735 18.7036C55.7325 18.3695 55.1358 18.2025 54.4835 18.2025H54.4358C53.7834 18.2025 53.1788 18.3616 52.6219 18.6798C52.0809 18.9979 51.6434 19.4354 51.3093 19.9923C50.991 20.5332 50.8319 21.1377 50.8319 21.8059C50.8319 22.4582 50.991 23.0627 51.3093 23.6195C51.6434 24.1764 52.0809 24.6218 52.6219 24.9559C53.1788 25.2741 53.7834 25.4332 54.4358 25.4332H54.4835Z" fill="black"/>
<path d="M106.775 15.9116C107.045 15.657 107.379 15.5298 107.777 15.5298C108.111 15.5298 108.397 15.6332 108.636 15.84C108.875 16.0468 108.994 16.3173 108.994 16.6513V27.7957H106.345V19.7298L97.7531 27.6764C97.4826 27.9309 97.1644 28.0582 96.7984 28.0582C96.4643 28.0582 96.1699 27.9468 95.9154 27.7241C95.6608 27.5014 95.5335 27.215 95.5335 26.865V19.7298L86.9416 27.6764C86.6711 27.9309 86.3529 28.0582 85.9869 28.0582C85.6369 28.0582 85.3346 27.9468 85.08 27.7241C84.8414 27.5014 84.722 27.215 84.722 26.865V19.5866C84.722 19.157 84.5788 18.807 84.2924 18.5366C84.0219 18.2502 83.6958 18.107 83.3139 18.107C82.9321 18.107 82.5979 18.2502 82.3115 18.5366C82.041 18.807 81.9058 19.157 81.9058 19.5866V24.0252C81.9058 24.7729 81.7228 25.457 81.3569 26.0775C80.9909 26.682 80.4977 27.1673 79.8772 27.5332C79.2566 27.8832 78.5804 28.0582 77.8485 28.0582C77.1166 28.0582 76.4404 27.8832 75.8199 27.5332C75.1993 27.1673 74.7061 26.682 74.3401 26.0775C73.9742 25.457 73.7912 24.7729 73.7912 24.0252V19.5866C73.7912 19.157 73.648 18.807 73.3616 18.5366C73.0911 18.2502 72.765 18.107 72.3831 18.107C72.0012 18.107 71.6671 18.2502 71.3807 18.5366C71.1102 18.807 70.975 19.157 70.975 19.5866V24.0252C70.975 24.7729 70.792 25.457 70.4261 26.0775C70.0601 26.682 69.5669 27.1673 68.9463 27.5332C68.3258 27.8832 67.6496 28.0582 66.9177 28.0582C66.1858 28.0582 65.5096 27.8832 64.8891 27.5332C64.2685 27.1673 63.7753 26.682 63.4093 26.0775C63.0434 25.457 62.8604 24.7729 62.8604 24.0252V15.8638H65.5096V24.0252C65.5096 24.4548 65.6448 24.8127 65.9153 25.0991C66.2017 25.3695 66.5358 25.5048 66.9177 25.5048C67.2996 25.5048 67.6257 25.3695 67.8962 25.0991C68.1826 24.8127 68.3258 24.4548 68.3258 24.0252V19.5866C68.3258 18.8388 68.5088 18.1627 68.8747 17.5582C69.2407 16.9377 69.7339 16.4525 70.3545 16.1025C70.975 15.7366 71.6512 15.5536 72.3831 15.5536C73.115 15.5536 73.7912 15.7366 74.4117 16.1025C75.0323 16.4525 75.5255 16.9377 75.8915 17.5582C76.2574 18.1627 76.4404 18.8388 76.4404 19.5866V24.0252C76.4404 24.4548 76.5756 24.8127 76.8461 25.0991C77.1325 25.3695 77.4666 25.5048 77.8485 25.5048C78.2304 25.5048 78.5565 25.3695 78.827 25.0991C79.1134 24.8127 79.2566 24.4548 79.2566 24.0252V19.5866C79.2566 18.8388 79.4396 18.1627 79.8056 17.5582C80.1715 16.9377 80.6647 16.4525 81.2853 16.1025C81.9058 15.7366 82.582 15.5536 83.3139 15.5536C84.0458 15.5536 84.722 15.7366 85.3426 16.1025C85.9631 16.4525 86.4563 16.9377 86.8223 17.5582C87.1882 18.1627 87.3712 18.8388 87.3712 19.5866V23.8582L95.987 15.9116C96.2415 15.657 96.5757 15.5298 96.9894 15.5298C97.3076 15.5298 97.586 15.6332 97.8247 15.84C98.0633 16.0309 98.1827 16.3013 98.1827 16.6513V23.8582L106.775 15.9116Z" fill="black"/>
<path d="M117.168 27.7957C116.07 27.7957 115.052 27.5332 114.113 27.0082C113.19 26.4673 112.458 25.7354 111.917 24.8127C111.376 23.89 111.106 22.8877 111.106 21.8059C111.106 20.74 111.376 19.7536 111.917 18.8468C112.458 17.9241 113.19 17.2002 114.113 16.6752C115.052 16.1343 116.07 15.8638 117.168 15.8638H123.039V27.7957H117.168ZM131.846 15.8638C132.912 15.8638 133.898 16.1343 134.805 16.6752C135.728 17.2002 136.46 17.9241 137.001 18.8468C137.542 19.7536 137.812 20.74 137.812 21.8059C137.812 22.8877 137.542 23.89 137.001 24.8127C136.46 25.7354 135.728 26.4673 134.805 27.0082C133.898 27.5332 132.912 27.7957 131.846 27.7957H128.505V34.0002H125.879V15.8638H131.846ZM145.832 15.8638C146.898 15.8638 147.884 16.1343 148.791 16.6752C149.714 17.2002 150.446 17.9241 150.987 18.8468C151.528 19.7536 151.798 20.74 151.798 21.8059C151.798 22.8877 151.528 23.89 150.987 24.8127C150.446 25.7354 149.714 26.4673 148.791 27.0082C147.884 27.5332 146.898 27.7957 145.832 27.7957H142.49V34.0002H139.865V15.8638H145.832ZM117.192 25.2423C117.796 25.2423 118.353 25.0911 118.863 24.7889C119.372 24.4707 119.777 24.0491 120.08 23.5241C120.382 22.9991 120.533 22.4263 120.533 21.8059C120.533 21.1854 120.382 20.6127 120.08 20.0877C119.777 19.5627 119.372 19.1491 118.863 18.8468C118.353 18.5445 117.796 18.3934 117.192 18.3934C116.571 18.3934 116.007 18.5445 115.497 18.8468C114.988 19.1491 114.582 19.5627 114.28 20.0877C113.978 20.6127 113.827 21.1854 113.827 21.8059C113.827 22.4263 113.978 22.9991 114.28 23.5241C114.582 24.0491 114.988 24.4707 115.497 24.7889C116.007 25.0911 116.571 25.2423 117.192 25.2423ZM131.774 18.3934C131.154 18.3934 130.581 18.5525 130.056 18.8707C129.547 19.1729 129.141 19.5866 128.839 20.1116C128.536 20.6207 128.385 21.1854 128.385 21.8059C128.385 22.4263 128.536 23.007 128.839 23.5479C129.141 24.0729 129.547 24.4866 130.056 24.7889C130.581 25.0911 131.154 25.2423 131.774 25.2423C132.363 25.2423 132.912 25.0911 133.421 24.7889C133.93 24.4707 134.336 24.0491 134.638 23.5241C134.941 22.9991 135.092 22.4263 135.092 21.8059C135.092 21.2013 134.941 20.6366 134.638 20.1116C134.336 19.5866 133.93 19.1729 133.421 18.8707C132.912 18.5525 132.363 18.3934 131.774 18.3934ZM145.736 18.3934C145.131 18.3934 144.567 18.5525 144.042 18.8707C143.532 19.1729 143.127 19.5866 142.824 20.1116C142.522 20.6366 142.371 21.2013 142.371 21.8059C142.371 22.4263 142.522 22.9991 142.824 23.5241C143.127 24.0491 143.532 24.4707 144.042 24.7889C144.567 25.0911 145.131 25.2423 145.736 25.2423C146.341 25.2423 146.898 25.0911 147.407 24.7889C147.916 24.4707 148.322 24.0491 148.624 23.5241C148.926 22.9991 149.077 22.4263 149.077 21.8059C149.077 21.2013 148.926 20.6366 148.624 20.1116C148.322 19.5866 147.916 19.1729 147.407 18.8707C146.898 18.5525 146.341 18.3934 145.736 18.3934Z" fill="black"/>
</g>
<defs>
<clipPath id="clip0_144_69995">
<rect width="152" height="40" fill="white"/>
</clipPath>
</defs>
</svg>
