<svg width="576" height="512" viewBox="0 0 576 512" fill="none" xmlns="http://www.w3.org/2000/svg">
<g clip-path="url(#clip0_3717_4217)">
<path d="M313.296 19.7363L313.302 19.7485L377.602 152.048L378.526 153.949L380.616 154.257L524.307 175.456C524.308 175.456 524.309 175.456 524.311 175.456C534.807 177.032 543.473 184.379 546.802 194.455C550.122 204.502 547.415 215.616 539.888 223.055L539.887 223.057L435.687 326.157L434.209 327.619L434.556 329.669L459.254 475.358C461.003 485.846 456.636 496.446 447.947 502.765C439.311 509.046 427.854 509.767 418.373 504.766C418.371 504.765 418.369 504.764 418.367 504.762L290.084 436.271L288.2 435.266L286.316 436.271L158.033 504.762C158.031 504.764 158.028 504.765 158.026 504.766C148.567 509.755 137.096 508.964 128.431 502.75C119.778 496.544 115.396 485.865 117.145 475.362C117.145 475.361 117.145 475.359 117.146 475.358L141.744 329.666L142.09 327.618L140.613 326.157L36.4134 223.057L36.4118 223.055C28.904 215.635 26.2614 204.515 29.5078 194.425C32.7349 184.395 41.4724 177.035 51.9912 175.456C51.9919 175.456 51.9926 175.456 51.9934 175.456L195.584 154.257L197.674 153.949L198.598 152.048L262.891 19.7627C262.892 19.7599 262.893 19.7572 262.895 19.7544C267.631 10.1146 277.344 4 288.1 4C298.878 4 308.67 10.1332 313.296 19.7363Z" fill="#FFB500" stroke="#FF9900" stroke-width="8"/>
</g>
<defs>
<clipPath id="clip0_3717_4217">
<rect width="576" height="512" fill="white"/>
</clipPath>
</defs>
</svg>
